<?xml version="1.0" encoding="UTF-8" standalone="no"?>
<!-- Created with Inkscape (http://www.inkscape.org/) -->

<svg
   xmlns:dc="http://purl.org/dc/elements/1.1/"
   xmlns:cc="http://creativecommons.org/ns#"
   xmlns:rdf="http://www.w3.org/1999/02/22-rdf-syntax-ns#"
   xmlns:svg="http://www.w3.org/2000/svg"
   xmlns="http://www.w3.org/2000/svg"
   xmlns:sodipodi="http://sodipodi.sourceforge.net/DTD/sodipodi-0.dtd"
   xmlns:inkscape="http://www.inkscape.org/namespaces/inkscape"
   width="73.213074mm"
   height="9.8072224mm"
   viewBox="0 0 259.4164 34.75"
   id="svg2"
   version="1.1"
   inkscape:version="0.91 r13725"
   sodipodi:docname="stephankim-logo.svg">
  <defs
     id="defs4" />
  <sodipodi:namedview
     id="base"
     pagecolor="#ffffff"
     bordercolor="#666666"
     borderopacity="1.0"
     inkscape:pageopacity="0.0"
     inkscape:pageshadow="2"
     inkscape:zoom="1.2369679"
     inkscape:cx="-90.288152"
     inkscape:cy="-21.796096"
     inkscape:document-units="px"
     inkscape:current-layer="g5511"
     showgrid="false"
     inkscape:window-width="1440"
     inkscape:window-height="851"
     inkscape:window-x="0"
     inkscape:window-y="1"
     inkscape:window-maximized="1"
     fit-margin-top="0"
     fit-margin-left="0"
     fit-margin-right="0"
     fit-margin-bottom="0" />
  <metadata
     id="metadata7">
    <rdf:RDF>
      <cc:Work
         rdf:about="">
        <dc:format>image/svg+xml</dc:format>
        <dc:type
           rdf:resource="http://purl.org/dc/dcmitype/StillImage" />
        <dc:title />
      </cc:Work>
    </rdf:RDF>
  </metadata>
  <g
     inkscape:label="Layer 1"
     inkscape:groupmode="layer"
     id="layer1"
     transform="translate(-132.49652,-861.34791)">
    <text
       xml:space="preserve"
       style="color:#000000;font-style:normal;font-variant:normal;font-weight:normal;font-stretch:normal;font-size:30px;line-height:125%;font-family:'ALS Script';-inkscape-font-specification:'ALS Script';text-align:center;letter-spacing:0px;word-spacing:0px;writing-mode:lr-tb;text-anchor:middle;clip-rule:nonzero;display:inline;overflow:visible;visibility:visible;opacity:0.93999999;isolation:auto;mix-blend-mode:normal;color-interpolation:sRGB;color-interpolation-filters:linearRGB;solid-color:#000000;solid-opacity:1;fill:#000000;fill-opacity:1;fill-rule:nonzero;stroke:none;stroke-width:2.99999976;stroke-linecap:butt;stroke-linejoin:miter;stroke-miterlimit:4;stroke-dasharray:none;stroke-dashoffset:0;stroke-opacity:1;color-rendering:auto;image-rendering:auto;shape-rendering:auto;text-rendering:auto;enable-background:accumulate"
       x="168.04269"
       y="843.24237"
       id="text4155"
       sodipodi:linespacing="125%"><tspan
         sodipodi:role="line"
         id="tspan4157"
         x="168.04269"
         y="843.24237" /></text>
    <text
       xml:space="preserve"
       style="color:#000000;font-style:normal;font-variant:normal;font-weight:normal;font-stretch:normal;font-size:30px;line-height:125%;font-family:sans-serif;-inkscape-font-specification:'sans-serif, Normal';text-align:center;letter-spacing:0px;word-spacing:0px;writing-mode:lr-tb;text-anchor:middle;clip-rule:nonzero;display:inline;overflow:visible;visibility:visible;opacity:0.93999999;isolation:auto;mix-blend-mode:normal;color-interpolation:sRGB;color-interpolation-filters:linearRGB;solid-color:#000000;solid-opacity:1;fill:#000000;fill-opacity:1;fill-rule:nonzero;stroke:none;stroke-width:2.99999976;stroke-linecap:butt;stroke-linejoin:miter;stroke-miterlimit:4;stroke-dasharray:none;stroke-dashoffset:0;stroke-opacity:1;color-rendering:auto;image-rendering:auto;shape-rendering:auto;text-rendering:auto;enable-background:accumulate"
       x="97.713722"
       y="839.50812"
       id="text4145"
       sodipodi:linespacing="125%"><tspan
         sodipodi:role="line"
         id="tspan4147"
         x="97.713722"
         y="839.50812" /></text>
    <path
       style="fill:none;fill-rule:evenodd;stroke:#000000;stroke-width:0.80000001;stroke-linecap:round;stroke-linejoin:miter;stroke-miterlimit:4;stroke-dasharray:none;stroke-opacity:1"
       d="m 258.90902,879.20035 c 28.55496,-32.73031 43.13831,16.10794 63.26862,9.43355 1.9444,-0.64468 4.29411,-4.39631 4.29411,-4.39631"
       id="path4147"
       inkscape:connector-curvature="0"
       sodipodi:nodetypes="csc" />
    <path
       sodipodi:nodetypes="csc"
       inkscape:connector-curvature="0"
       id="path4149"
       d="m 259.33486,878.69529 c 27.6705,-33.88693 46.02576,19.7136 62.84278,9.93861 1.77104,-1.02943 4.29411,-4.39631 4.29411,-4.39631"
       style="fill:none;fill-rule:evenodd;stroke:#000000;stroke-width:0.69999999;stroke-linecap:round;stroke-linejoin:miter;stroke-miterlimit:4;stroke-dasharray:none;stroke-opacity:1" />
    <path
       style="fill:none;fill-rule:evenodd;stroke:#000000;stroke-width:0.69999999;stroke-linecap:round;stroke-linejoin:miter;stroke-miterlimit:4;stroke-dasharray:none;stroke-opacity:1"
       d="m 259.338,878.66333 c 24.52304,-33.17495 46.92379,19.68935 62.84875,10.36738 2.6699,-1.56287 4.76835,-4.19974 4.76835,-4.19974"
       id="path4151"
       inkscape:connector-curvature="0"
       sodipodi:nodetypes="csc" />
    <path
       style="fill:#000000;fill-opacity:1;fill-rule:evenodd;stroke:#000000;stroke-width:1px;stroke-linecap:round;stroke-linejoin:miter;stroke-opacity:1"
       d="m 328.86256,878.84342 -1.0527,4.91653 c -1.38066,7.7129 -9.53254,7.0035 -12.14054,5.69689 9.76441,0.69164 9.40182,-5.24438 13.19324,-10.61342 z"
       id="path4153"
       inkscape:connector-curvature="0"
       sodipodi:nodetypes="cccc" />
    <g
       id="g5511"
       transform="translate(1.2495386e-5,7.1397762e-6)">
      <g
         style="color:#000000;font-style:normal;font-variant:normal;font-weight:normal;font-stretch:normal;font-size:30px;line-height:125%;font-family:sans-serif;-inkscape-font-specification:'sans-serif, Normal';text-align:center;letter-spacing:0px;word-spacing:0px;writing-mode:lr-tb;text-anchor:middle;clip-rule:nonzero;display:inline;overflow:visible;visibility:visible;opacity:0.93999999;isolation:auto;mix-blend-mode:normal;color-interpolation:sRGB;color-interpolation-filters:linearRGB;solid-color:#000000;solid-opacity:1;fill:#000000;fill-opacity:1;fill-rule:nonzero;stroke:none;stroke-width:2.99999976;stroke-linecap:butt;stroke-linejoin:miter;stroke-miterlimit:4;stroke-dasharray:none;stroke-dashoffset:0;stroke-opacity:1;color-rendering:auto;image-rendering:auto;shape-rendering:auto;text-rendering:auto;enable-background:accumulate"
         id="text4159">
        <path
           d="m 142.74651,885.8479 q -1.45,0.85 -3.6,0.85 -2.1,0 -3.25,-1.4 -1.1,-1.4 -1.9,-4.45 -0.9,0.9 -1.25,0.9 -0.25,0 -0.25,-0.35 0,-0.35 0.25,-0.6 1.65,-2.05 5.6,-5.9 l 6.3,-5.9 q 2.7,-2.55 3.2,-2.55 1.6,0 1.6,1.2 0,0.6 -0.5,1.2 -0.45,0.55 -0.7,0.9 -0.2,0.3 -0.45,0.6 -0.9,1.55 -1.85,6.4 -0.9,4.85 -1.4,6.75 4.15,-0.05 8.55,-5.4 0.5,-0.5 0.75,-0.5 0.25,0 0.25,0.35 0,0.3 -0.45,0.85 -2.9,3.4 -5.4,4.75 -1.5,0.75 -3.9,1.25 l -1.6,1.05 z m -6.75,-5.55 q 0,1.7 1.1,2.8 1.15,1.05 2.55,1.05 1.4,0 2.15,-0.55 1,-0.55 1.95,-4.6 1,-4.05 1.2,-7.15 l 0.2,-1.7 q -2.75,2.05 -5.9,5.3 -3.1,3.25 -3.2,4.3 -0.05,0.3 -0.05,0.55 z"
           style="font-style:normal;font-variant:normal;font-weight:normal;font-stretch:normal;font-size:50px;font-family:'Alex Brush';-inkscape-font-specification:'Alex Brush'"
           id="path3348" />
        <path
           d="m 164.56526,870.4979 7.2,-0.1 q 0.15,0.1 0.15,0.15 0,0.45 -6.25,1.25 -6.2,0.8 -6.7,0.95 -0.95,0.85 -3.5,5.1 -2.55,4.2 -2.55,6.15 0,1.85 2.55,1.85 1.2,0 3.15,-0.75 1.95,-0.75 3,-1.4 2.8,-1.75 6,-5.15 0.7,-0.7 0.95,-0.7 0.15,0 0.15,0.3 0,0.3 -0.75,1.2 -2.6,3.2 -5.85,5.15 -3.9,2.4 -7.45,2.4 -1.55,0 -2.55,-0.65 -0.95,-0.7 -0.95,-2.75 0,-2.05 1.8,-5.6 1.8,-3.6 2.75,-5.35 -0.7,0.15 -1.2,0.15 -1.45,0 -1.45,-1.15 0,-0.85 1.2,-1.2 0.15,0 0.45,-0.05 l 2.9,0 q 0.9,-1.15 2.05,-2.65 1.4,-1.8 1.9,-1.8 0.5,0 1.25,0.4 0.75,0.4 0.75,0.95 0,0.55 -2.4,3.25 1.3,0.05 3.4,0.05 z"
           style="font-style:normal;font-variant:normal;font-weight:normal;font-stretch:normal;font-size:50px;font-family:'Alex Brush';-inkscape-font-specification:'Alex Brush'"
           id="path3350" />
        <path
           d="m 169.00667,887.2479 q -0.55,0 -1,-0.15 -3.2,-0.9 -3.2,-3.6 0,-3.5 4.4,-8.1 4.4,-4.6 7.9,-4.6 1.15,0 1.85,0.65 0.75,0.6 0.75,1.5 0,2.8 -4.25,5.35 -4.2,2.55 -6.85,2.55 -0.4,0 -0.7,-0.1 -0.75,1.35 -0.75,2.85 0,2.6 2.45,2.6 2.5,0 6.45,-3.35 3.05,-2.45 5.2,-5.2 0.45,-0.6 0.75,-0.6 0.35,0 0.35,0.3 0,0.3 -0.4,0.85 -2.7,3.55 -6.5,6.3 -3.8,2.75 -6.45,2.75 z m 9.45,-14.4 q 0,-0.6 -1.3,-0.6 -1.25,0 -3.6,1.95 -3.15,2.6 -4.9,5.45 0.3,0.1 0.65,0.1 1.9,0 5.05,-2 3.2,-2.05 4,-4.45 0.1,-0.25 0.1,-0.45 z"
           style="font-style:normal;font-variant:normal;font-weight:normal;font-stretch:normal;font-size:50px;font-family:'Alex Brush';-inkscape-font-specification:'Alex Brush'"
           id="path3352" />
        <path
           d="m 198.09963,875.2979 q 0,4.05 -4.65,7.7 -4.6,3.6 -8,3.6 -2.25,0 -3.3,-0.3 -1,-0.3 -2.25,-1.8 -0.85,0.7 -2.3,3.55 -1.45,2.9 -1.45,4.95 0,0.95 0.95,2.5 0.1,0.25 -0.15,0.4 -0.25,0.2 -0.35,0.2 -0.15,0 -0.25,-0.05 -2.1,-1.15 -2.1,-4.5 0,-3.3 5.5,-11.45 5.55,-8.2 7.65,-8.9 0.5,-0.1 0.65,-0.1 0.85,0 0.85,1.85 0.5,-0.5 2.05,-0.95 1.9,-0.5 2.7,-0.5 1.8,0 3.1,1.05 1.35,1 1.35,2.75 z m -2.55,-0.5 q 0,-1.9 -2.25,-1.9 -2.25,0 -4.1,0.95 -0.85,0.4 -4.7,4.4 -3.85,4 -3.85,5.15 0,0.9 1.35,1.35 1.4,0.45 2.8,0.45 2.75,0 6.75,-3.1 4,-3.15 4,-7.3 z"
           style="font-style:normal;font-variant:normal;font-weight:normal;font-stretch:normal;font-size:50px;font-family:'Alex Brush';-inkscape-font-specification:'Alex Brush'"
           id="path3354" />
        <path
           d="m 209.94729,886.3979 q -2.95,0 -2.95,-3.45 0,-1.95 1.35,-4.3 1.4,-2.4 3.4,-5.6 -6.4,3.2 -11.6,9.45 -2.9,4.35 -3.4,4.35 -1.45,0 -1.45,-0.85 0,-0.45 0.6,-1.6 4.85,-8.65 7.35,-12.65 5.95,-9.55 8.4,-10.35 0.1,-0.05 0.2,-0.05 0.65,0 0.9,1.05 -0.15,1.05 -5.2,7.6 -5.25,6.65 -5.95,8.7 1.85,-1.35 6.45,-4.55 4.95,-3.45 6.55,-3.45 1.6,0 1.6,1.25 0,0.2 -0.05,0.3 0,0.05 -3.45,4.7 -3.45,4.65 -3.45,6.85 0,1.15 0.85,1.15 2.7,-0.1 8.1,-6.5 0.45,-0.45 0.65,-0.45 0.25,0 0.25,0.3 0,1 -4.95,5.4 -3.1,2.7 -4.2,2.7 z"
           style="font-style:normal;font-variant:normal;font-weight:normal;font-stretch:normal;font-size:50px;font-family:'Alex Brush';-inkscape-font-specification:'Alex Brush'"
           id="path3356" />
        <path
           d="m 233.59495,871.6479 0.7,-0.15 q 0.55,0 1.05,0.45 0.5,0.45 0.5,0.7 0,0.25 -3.1,4.85 -3.1,4.55 -3.1,6.35 0,0.15 0.05,0.3 0.25,1.15 1.1,1.15 2.6,0 9.5,-8.6 0.15,-0.2 0.35,-0.2 0.2,0 0.2,0.4 0,0.35 -0.45,0.95 -6.4,8.55 -9.75,8.55 -0.45,0 -0.85,-0.15 -2.2,-0.85 -2.2,-3.3 0,-0.85 0.2,-1.7 l -3.1,3 q -2.95,2.6 -4.3,2.6 -1.3,0 -2.5,-0.85 -1.35,-1 -1.35,-2.65 0,-3.65 5.1,-8.7 5.1,-5.1 9.35,-5.1 1.65,0 2.2,1.15 0.15,0.4 0.25,0.7 0.1,0.25 0.15,0.25 z m -14.95,12.3 q 0,1.8 1.25,1.8 2.9,0 7.9,-6.35 l 5.3,-7.3 q -0.4,-0.7 -1.3,-0.7 -3.05,0 -8.1,4.75 -5.05,4.7 -5.05,7.8 z"
           style="font-style:normal;font-variant:normal;font-weight:normal;font-stretch:normal;font-size:50px;font-family:'Alex Brush';-inkscape-font-specification:'Alex Brush'"
           id="path3358" />
        <path
           d="m 245.60042,870.7979 q 1.35,0 1.35,1.05 0,0.3 -0.15,0.6 -4.5,6.25 -5.4,9.45 11.65,-11.65 14.15,-11.65 0.25,-0.05 0.45,-0.05 1.4,0 1.4,1.25 0,0.25 -0.1,0.5 -0.1,0.25 -2,2.7 -2.2,2.6 -3.75,5 -1.5,2.4 -1.5,4 0,1.6 0.7,1.6 2.2,0 7.65,-6.05 0.1,-0.1 0.35,-0.45 0.75,-0.9 0.9,-0.9 0.15,0 0.15,0.5 0,0.5 -0.7,1.3 -6.2,7.05 -8.8,7.05 -2.45,0 -2.45,-2.7 0,-2.7 2,-6.2 l 3.2,-5.2 q -3.4,2.5 -6.05,5.5 -2.65,2.95 -4.85,5.75 -2.15,2.8 -2.5,2.8 -0.75,0 -1.2,-0.6 -0.4,-0.65 -0.4,-1.55 0,-0.95 0.65,-2.5 0.65,-1.55 1.65,-3.75 l -3,3.15 q -1.1,1.1 -1.35,1.1 -0.3,0 -0.3,-0.3 0,-0.35 0.4,-0.75 1.85,-1.85 3.2,-3.55 1.3,-1.7 5.35,-6.5 0.45,-0.6 0.95,-0.6 z"
           style="font-style:normal;font-variant:normal;font-weight:normal;font-stretch:normal;font-size:50px;font-family:'Alex Brush';-inkscape-font-specification:'Alex Brush'"
           id="path3360" />
        <path
           d="m 337.05823,887.1979 q -3.95,0 -6.7,-6.25 -0.7,1.05 -3.15,5.9 -1.8,-0.7 -1.8,-1.9 0,-2.15 6.45,-11.8 6.45,-9.65 8.85,-11.35 0.2,-0.15 0.8,-0.15 1.55,0 1.55,0.8 0,0.4 -3.5,4.5 -3.45,4.1 -3.85,4.95 4.55,-2.35 7.25,-2.35 1.55,0 2.65,1.25 1.05,1.05 1.05,2.15 0,0.15 0,0.3 -0.4,2.85 -4,4.7 -2.9,1.55 -5.4,1.55 -2.5,0 -3.5,-0.65 -0.3,-0.05 -0.5,0.15 -0.15,0.2 -0.05,0.5 1.4,6.2 4.65,6.2 1.7,0 4.35,-1.9 2.7,-1.9 5.6,-5.35 0.35,-0.35 0.6,-0.35 0.3,0 0.3,0.3 0,0.25 -0.35,0.75 -2.7,3.3 -5.1,5.2 -3.65,2.85 -6.2,2.85 z m 7.2,-15.3 q 0,-0.4 -0.45,-0.8 -0.45,-0.4 -0.95,-0.4 -2.7,0 -6.5,2.25 -3.75,2.25 -4.6,5.1 0.45,0 2.4,0.15 2.25,0 5.9,-1.85 4.2,-2.1 4.2,-4.45 z"
           style="font-style:normal;font-variant:normal;font-weight:normal;font-stretch:normal;font-size:50px;font-family:'Alex Brush';-inkscape-font-specification:'Alex Brush'"
           id="path3362" />
        <path
           d="m 357.38479,866.1979 q 0.75,0 1.4,0.5 0.7,0.45 0.7,1.1 0,0.65 -0.65,1.15 -0.6,0.45 -1.35,0.45 -0.75,0 -1.4,-0.55 -0.6,-0.55 -0.6,-1.25 0,-1.4 1.9,-1.4 z m -9.05,20.95 q -2.55,0 -2.55,-3.3 0,-2.7 2.95,-7.45 2.95,-4.8 4.75,-4.85 0.5,0 1.1,0.4 0.65,0.4 0.65,0.8 -0.25,0.35 -0.6,0.8 -0.35,0.4 -0.75,0.9 -0.4,0.5 -1.1,1.45 -0.7,0.9 -1.35,1.75 -3.75,4.85 -3.75,6.7 0,1.8 1.25,1.8 1.05,0 2.85,-1.15 4.2,-2.6 6.65,-5.7 0.9,-1.15 1.2,-1.15 0.35,0 0.35,0.4 0,0.4 -1.15,1.6 -1.15,1.2 -1.85,1.9 -0.65,0.7 -0.9,0.95 -0.25,0.2 -0.95,0.85 -0.65,0.6 -1,0.85 -0.35,0.25 -1,0.75 -0.65,0.5 -1.15,0.75 -0.5,0.2 -1.15,0.5 -1.05,0.45 -2.5,0.45 z"
           style="font-style:normal;font-variant:normal;font-weight:normal;font-stretch:normal;font-size:50px;font-family:'Alex Brush';-inkscape-font-specification:'Alex Brush'"
           id="path3364" />
        <path
           d="m 381.76292,885.9979 q -3.4,0 -3.4,-3.15 0,-1.8 1.6,-4.9 1.6,-3.15 3.35,-5.3 -3.1,1.5 -7.15,5.45 -4.05,3.9 -5.65,8.2 -0.25,0.4 -0.85,0.4 -1.2,0 -1.2,-1.35 0.5,-2.75 2.25,-6.3 0.55,-1.15 3.25,-6.7 -3.9,2.55 -6.65,5.5 -2.7,2.9 -5.05,5.85 -2.3,2.95 -2.6,2.95 -0.65,0 -1.15,-0.6 -0.45,-0.6 -0.45,-1.2 0,-0.9 2.6,-6.6 l -3,3.15 q -1.1,1.1 -1.35,1.1 -0.3,0 -0.3,-0.3 0,-0.35 0.4,-0.75 1.85,-1.85 3.3,-3.7 1.45,-1.85 4.8,-6.6 0.55,-0.75 1.55,-0.75 1,0 1,0.95 0,0.35 -2.65,4.9 -2.65,4.5 -2.95,5.65 2.05,-2.25 6.15,-6.05 6.15,-5.7 8.1,-5.7 0.6,0 1.1,0.35 0.5,0.35 0.5,0.8 0,0.4 -1.95,3.75 -1.9,3.45 -2.1,4.1 5.55,-4.65 5.55,-4.7 4.7,-3.65 6.75,-3.65 0.6,0 1.1,0.4 0.55,0.35 0.55,0.85 0,0.1 -3.25,4.25 -3.25,4.1 -3.65,6.75 -0.1,0.9 0.35,1.35 0.45,0.45 1.6,0.45 1.2,0 3.45,-1.6 2.3,-1.65 4.65,-4.4 0.9,-1 1.2,-1 0.35,0 0.35,0.25 0,0.35 -0.45,0.8 -2.45,2.95 -5.3,5.05 -2.8,2.05 -4.4,2.05 z"
           style="font-style:normal;font-variant:normal;font-weight:normal;font-stretch:normal;font-size:50px;font-family:'Alex Brush';-inkscape-font-specification:'Alex Brush'"
           id="path3366" />
      </g>
      <path
         sodipodi:nodetypes="sacascs"
         inkscape:connector-curvature="0"
         id="path4155"
         d="m 283.94333,871.80595 c 0.74247,-5.25283 4.02712,-7.04618 7.02252,-6.17983 2.72589,0.78839 2.402,8.16694 2.402,8.16694 0,0 5.81691,-4.42033 8.02407,-2.60059 2.40589,1.98359 2.82877,5.68298 -1.0571,9.29457 -3.16305,2.93977 -12.30994,3.5391 -12.30994,3.5391 0,0 -4.68592,-7.94447 -4.08155,-12.22019 z"
         style="fill:#a00000;fill-opacity:1;fill-rule:evenodd;stroke:#a00000;stroke-width:1px;stroke-linecap:butt;stroke-linejoin:miter;stroke-opacity:1" />
    </g>
    <text
       xml:space="preserve"
       style="color:#000000;font-style:normal;font-variant:normal;font-weight:normal;font-stretch:normal;font-size:30px;line-height:125%;font-family:sans-serif;-inkscape-font-specification:'sans-serif, Normal';text-align:center;letter-spacing:0px;word-spacing:0px;writing-mode:lr-tb;text-anchor:middle;clip-rule:nonzero;display:inline;overflow:visible;visibility:visible;opacity:0.93999999;isolation:auto;mix-blend-mode:normal;color-interpolation:sRGB;color-interpolation-filters:linearRGB;solid-color:#000000;solid-opacity:1;fill:#000000;fill-opacity:1;fill-rule:nonzero;stroke:none;stroke-width:2.99999976;stroke-linecap:butt;stroke-linejoin:miter;stroke-miterlimit:4;stroke-dasharray:none;stroke-dashoffset:0;stroke-opacity:1;color-rendering:auto;image-rendering:auto;shape-rendering:auto;text-rendering:auto;enable-background:accumulate"
       x="-46.649475"
       y="862.24359"
       id="text4149"
       sodipodi:linespacing="125%"><tspan
         sodipodi:role="line"
         id="tspan4151"
         x="-46.649475"
         y="862.24359" /></text>
  </g>
</svg>
